<svg width="0" height="0" class="hidden">
  <symbol xmlns="http://www.w3.org/2000/svg" viewBox="0 0 7 8" id="Ellipse">
    <circle cx="3.60742" cy="4.21185" r="3.25" ></circle>
  </symbol>
  <symbol xmlns="http://www.w3.org/2000/svg" viewBox="0 0 21 18" id="Group">
    <path fill-rule="evenodd" clip-rule="evenodd" d="M15.2603 4.96271V7.99527L20.2761 3.97948L15.2603 -0.00106812V2.96271H13.1804H12.7662L12.4733 3.2556L3.2623 12.4666H0.28125V14.4666H3.67651H4.09073L4.38362 14.1737L13.5946 4.96271H15.2603Z" ></path>
    <path fill-rule="evenodd" clip-rule="evenodd" d="M15.2603 12.1986V9.16608L20.2761 13.1819L15.2603 17.1624V14.1986H13.1804H12.7662L12.4733 13.9057L3.2623 4.69472H0.28125V2.69472H3.67651H4.09073L4.38362 2.98761L13.5946 12.1986H15.2603Z" ></path>
  </symbol>
  <symbol xmlns="http://www.w3.org/2000/svg" viewBox="0 0 19 17" id="home">
    <path d="M17.9211 7.5528L9.89645 0.240769C9.54422 -0.0802273 9.01307 -0.0801923 8.66099 0.240734L0.63629 7.55284C0.354139 7.80994 0.260939 8.20608 0.398783 8.56201C0.536662 8.91794 0.872365 9.1479 1.25407 9.1479H2.53575V16.474C2.53575 16.7645 2.77127 17 3.06174 17H7.46025C7.75071 17 7.98623 16.7645 7.98623 16.474V12.0258H10.5713V16.4741C10.5713 16.7645 10.8068 17 11.0973 17H15.4956C15.7861 17 16.0216 16.7646 16.0216 16.4741V9.1479H17.3035C17.6852 9.1479 18.0209 8.9179 18.1588 8.56201C18.2965 8.20605 18.2033 7.80994 17.9211 7.5528Z" ></path>
    <path d="M15.8842 1.04993H12.3518L16.4101 4.74007V1.57587C16.4101 1.28541 16.1747 1.04993 15.8842 1.04993Z" ></path>
  </symbol>
  <symbol xmlns="http://www.w3.org/2000/svg" viewBox="0 0 14 25" id="iphone">
    <path d="M10.9927 0.789307H3.00722C1.59797 0.790905 0.455988 1.93289 0.45459 3.34214V22.2367C0.455988 23.6459 1.59797 24.7879 3.00722 24.7893H10.9927C12.402 24.7879 13.5439 23.6459 13.5455 22.2367V3.34214C13.5439 1.93289 12.402 0.790905 10.9927 0.789307V0.789307ZM7.00006 22.6076C6.39741 22.6076 5.90902 22.1192 5.90902 21.5166C5.90902 20.9141 6.39741 20.4257 7.00006 20.4257C7.60251 20.4257 8.09091 20.9141 8.09091 21.5166C8.09091 22.1192 7.60251 22.6076 7.00006 22.6076ZM8.63643 4.06204H5.36369C5.06247 4.06204 4.81817 3.81775 4.81817 3.51652C4.81817 3.21529 5.06247 2.9712 5.36369 2.9712H8.63643C8.93766 2.9712 9.18175 3.21529 9.18175 3.51652C9.18175 3.81775 8.93766 4.06204 8.63643 4.06204Z" ></path>
  </symbol>
  <symbol xmlns="http://www.w3.org/2000/svg" viewBox="0 0 28 19" id="macbook">
    <path d="M25.1174 1.89164C25.1174 1.01599 24.4048 0.303406 23.5291 0.303406H4.47032C3.59467 0.303406 2.88208 1.01599 2.88208 1.89164V14.0681H25.1174V1.89164Z" ></path>
    <path d="M26.7058 15.1269H1.29406C1.00185 15.1269 0.764648 15.3641 0.764648 15.6563C0.764648 17.1164 1.95159 18.3033 3.41171 18.3033H24.5882C26.0483 18.3033 27.2352 17.1164 27.2352 15.6563C27.2352 15.3641 26.998 15.1269 26.7058 15.1269Z" ></path>
  </symbol>
  <symbol xmlns="http://www.w3.org/2000/svg" viewBox="0 0 21 17" id="newspaper">
    <path d="M19.2793 0.0767212C19.8316 0.0767212 20.2793 0.524436 20.2793 1.07672V15.0923C20.2793 15.6446 19.8316 16.0923 19.2793 16.0923H1.2793C0.727013 16.0923 0.279297 15.6446 0.279297 15.0923V1.07672C0.279297 0.524436 0.727013 0.0767212 1.2793 0.0767212H19.2793ZM8.91211 12.772C8.91211 13.0956 9.17444 13.358 9.49805 13.358H16.959C17.2826 13.358 17.5449 13.0956 17.5449 12.772C17.5449 12.4484 17.2826 12.1861 16.959 12.1861H9.49805C9.17444 12.1861 8.91211 12.4484 8.91211 12.772ZM8.91211 10.4283C8.91211 10.7519 9.17444 11.0142 9.49805 11.0142H16.959C17.2826 11.0142 17.5449 10.7519 17.5449 10.4283C17.5449 10.1047 17.2826 9.84235 16.959 9.84235H9.49805C9.17444 9.84235 8.91211 10.1047 8.91211 10.4283ZM8.91211 8.08453C8.91211 8.40814 9.17444 8.67047 9.49805 8.67047H16.959C17.2826 8.67047 17.5449 8.40814 17.5449 8.08453C17.5449 7.76093 17.2826 7.4986 16.959 7.4986H9.49805C9.17444 7.4986 8.91211 7.76093 8.91211 8.08453ZM8.91211 5.74078C8.91211 6.06439 9.17444 6.32672 9.49805 6.32672H16.959C17.2826 6.32672 17.5449 6.06439 17.5449 5.74078C17.5449 5.41718 17.2826 5.15485 16.959 5.15485H9.49805C9.17444 5.15485 8.91211 5.41718 8.91211 5.74078ZM3.01367 10.0142C3.01367 10.5665 3.46139 11.0142 4.01367 11.0142H6.70117C7.25346 11.0142 7.70117 10.5665 7.70117 10.0142V6.15485C7.70117 5.60256 7.25346 5.15485 6.70117 5.15485H4.01367C3.46139 5.15485 3.01367 5.60256 3.01367 6.15485V10.0142ZM1.45117 1.83453C1.45117 2.15814 1.7135 2.42047 2.03711 2.42047H18.5215C18.8451 2.42047 19.1074 2.15814 19.1074 1.83453C19.1074 1.51093 18.8451 1.2486 18.5215 1.2486H2.03711C1.7135 1.2486 1.45117 1.51093 1.45117 1.83453Z" ></path>
  </symbol>
  <symbol xmlns="http://www.w3.org/2000/svg" viewBox="0 0 21 18" id="wallet">
    <path d="M15.0233 6.1518H20.5582V3.58203C20.5582 1.94705 19.228 0.616913 17.5931 0.616913H2.96511C1.33014 0.616913 0 1.94705 0 3.58203V14.6518C0 16.2868 1.33014 17.6169 2.96511 17.6169H17.5931C19.228 17.6169 20.5582 16.2868 20.5582 14.6518V12.082H15.0233C13.3883 12.082 12.0582 10.7519 12.0582 9.11691C12.0582 7.48194 13.3883 6.1518 15.0233 6.1518Z" ></path>
    <path d="M15.0232 7.33786C14.0423 7.33786 13.2441 8.13593 13.2441 9.11694C13.2441 10.098 14.0422 10.896 15.0232 10.896H20.5581V7.3379H15.0232V7.33786ZM15.8139 9.70996H15.0232C14.6957 9.70996 14.4302 9.44443 14.4302 9.11694C14.4302 8.78946 14.6957 8.52393 15.0232 8.52393H15.8139C16.1414 8.52393 16.4069 8.78946 16.4069 9.11694C16.4069 9.44443 16.1414 9.70996 15.8139 9.70996Z" ></path>
  </symbol>
</svg>